<?xml version="1.0" encoding="UTF-8" standalone="no"?>
<svg width="544px" height="227px" viewBox="0 0 544 227" version="1.1" xmlns="http://www.w3.org/2000/svg" xmlns:xlink="http://www.w3.org/1999/xlink">
    <!-- Generator: Sketch 50 (54983) - http://www.bohemiancoding.com/sketch -->
    <title>Group 5</title>
    <desc>Created with Sketch.</desc>
    <defs></defs>
    <g id="Page-1" stroke="none" stroke-width="1" fill="none" fill-rule="evenodd">
        <g id="Artboard-1" fill="#FEFEFE">
            <g id="Group-5" transform="translate(0.000000, -0.144000)">
                <path d="M44.5711,168.2263 C42.0971,170.7883 39.3941,172.9833 36.5161,175.3883 C34.5281,176.9343 32.1741,178.7073 29.9571,179.8873 C25.5411,182.4373 23.5461,181.8493 21.9021,176.7663 C21.0171,173.5513 20.7091,170.2833 20.7851,166.9773 C21.5581,152.5483 25.2891,138.6163 29.6141,124.8223 C37.1361,99.6683 49.3711,77.1753 65.8991,56.9923 C69.9041,52.1523 74.7511,48.0093 79.4061,43.8843 C81.2021,42.3563 83.4191,41.1783 85.6731,40.3833 C90.9111,38.3373 94.7461,39.9153 96.2341,45.4013 C97.2101,49.5773 97.4521,54.2103 97.1011,58.7053 C96.2951,68.6763 93.1091,78.0943 89.3101,87.1833 C85.3191,96.2893 81.1351,105.4133 77.1251,114.3283 C75.8221,116.9733 74.7301,119.7913 73.4641,122.8213 C75.3211,124.0043 76.5661,124.8563 78.4421,126.2323 C67.7891,140.8163 57.3281,155.3833 44.5711,168.2263 M527.1141,107.6053 C450.9111,112.0263 384.1291,121.8413 326.9871,133.9373 C329.1731,132.2533 331.2361,130.4683 333.0111,128.5293 C337.7351,123.2553 343.3141,116.8473 348.4061,110.6723 C347.6851,112.7113 346.9651,114.7513 346.2591,116.8043 C344.7711,121.6003 346.7741,124.3213 351.6721,124.8303 C355.9931,125.3923 360.1871,124.6093 363.3581,121.2053 C364.5961,119.9253 365.6231,118.4703 366.8601,117.1893 C379.7471,101.6183 394.9861,88.3473 410.4531,75.4423 C412.2681,74.1063 414.3281,73.3303 417.4521,71.4843 L417.2311,83.5333 C416.7781,89.0083 415.9201,94.3273 416.0441,99.7473 C416.0361,107.8953 419.2461,111.0853 427.2761,111.8803 C434.7281,112.7293 441.7351,110.9043 448.1741,107.1933 C454.9621,103.0613 461.9071,98.5263 468.2201,93.4693 C481.0031,82.9513 493.3641,72.0853 505.9181,61.2023 C507.7141,59.6743 509.2811,57.7813 510.4461,55.7303 C511.6471,54.0653 510.4131,51.2713 508.0711,51.1043 C506.4951,50.8653 504.3801,51.0643 502.8971,51.7863 C500.6791,52.9653 498.5171,54.7223 496.3371,56.2853 C478.1581,69.2513 460.1921,82.3923 441.9961,95.1663 C439.8161,96.7293 437.7431,99.4473 433.9261,98.0603 C433.7811,96.5223 433.4451,95.0023 433.5091,93.6383 C433.6151,88.5843 434.1061,83.4943 434.0001,78.2653 C433.9831,67.7913 428.2821,62.8963 417.9001,63.8753 C412.7261,64.5583 407.8701,66.5673 403.8761,69.4663 C395.1911,76.1053 386.9061,82.9003 378.4311,89.7133 C375.5361,91.9273 373.0431,94.2963 370.3591,96.6833 C369.9371,96.3343 369.3241,96.0043 368.8851,95.4643 C370.6851,89.8623 372.4661,84.0683 374.0561,78.2923 C374.4961,76.7443 374.8821,75.1193 375.2251,73.4673 C375.2331,73.4313 375.2401,73.3983 375.2471,73.3623 C375.4511,72.3723 375.6341,71.3743 375.7951,70.3673 C375.8461,70.1093 375.8951,69.8553 375.9531,69.5773 C375.9421,69.5843 375.9321,69.5893 375.9211,69.5973 C376.0571,68.6763 376.1781,67.7523 376.2731,66.8303 C376.5411,63.5073 372.6711,61.5443 369.9491,63.5473 C368.3271,64.8643 366.9351,66.5473 366.1361,68.3693 C363.1831,74.0803 360.2111,79.5983 357.8531,85.4463 C357.6691,85.9093 357.4911,86.3783 357.3091,86.8423 C343.6991,100.9133 339.1731,101.8383 323.8831,118.1383 C320.1901,122.1723 316.2681,125.8403 310.5961,129.4793 C310.1511,126.8053 309.6391,125.4953 309.7401,124.5153 C311.0571,115.8553 311.9721,107.0383 313.5001,98.5523 C314.9441,91.2383 317.3681,84.0253 319.2151,76.8673 C319.7671,74.4873 320.8771,71.8613 318.0231,70.3843 C315.3411,68.6963 312.4921,69.3533 310.5401,71.2833 C308.1861,73.0583 306.2891,75.5643 304.7761,78.0353 C302.7651,81.8043 300.8921,85.6173 299.2161,89.4973 C298.8091,89.8623 297.8211,90.7853 295.2341,93.2343 C281.8811,105.9403 268.7391,118.8193 255.5631,131.3143 C249.8631,136.7023 243.7411,141.7413 236.2491,144.5813 C233.4231,141.3563 233.0971,137.8953 233.3281,134.1873 C233.8331,123.0813 236.4891,112.1613 240.7561,101.8643 C245.7021,90.5343 250.8401,79.1843 256.8211,68.5333 C266.8161,51.1003 277.6361,34.1713 288.2451,17.0683 C290.4371,13.5643 292.8211,10.0413 297.0801,7.8933 C299.5221,11.1553 298.8681,14.5153 297.9881,17.5083 C296.4451,21.7273 295.1131,26.1223 292.9581,30.0103 C287.3081,40.0493 281.6591,50.0883 275.3611,59.4133 C267.1821,71.4353 258.1621,82.7633 249.5441,94.2453 C247.8391,96.7343 245.2921,98.5263 245.4981,102.7743 C247.2661,102.9963 249.4901,103.9513 250.9911,103.4213 C253.7851,102.1873 256.5421,100.5693 258.4951,98.6393 C262.9211,94.1483 267.3301,89.4643 271.1071,84.2583 C284.5291,66.1143 296.0921,46.7873 304.9921,25.9663 C306.4151,22.5333 307.6631,19.3113 308.4901,15.7423 C311.4771,4.2073 305.6871,-1.6487 293.8731,0.6293 L291.2361,1.4603 C284.9811,3.0203 279.9231,6.9893 275.9171,11.8293 C269.1071,19.8433 262.2961,27.8583 256.1171,36.3943 C241.2011,57.2013 227.3191,78.6863 216.5211,102.0153 C215.5671,104.2393 214.6121,106.4633 213.0271,108.1653 C201.0021,120.5513 189.1891,133.1113 175.6181,143.5093 C172.8981,145.5113 170.3871,147.6883 167.0811,147.6123 C164.4951,142.8113 164.4951,142.8113 164.9191,139.0863 C166.3781,125.7563 170.8301,113.3083 178.1021,101.9523 C179.9631,99.0603 182.6121,96.2883 185.1051,93.9193 C187.0741,92.1823 189.4471,90.6003 192.4591,91.6743 C194.7341,97.2793 194.7341,97.2793 193.7021,102.8093 C192.5161,108.7413 190.9271,114.5173 189.7401,120.4493 C189.4831,121.8313 190.0301,123.5253 190.4941,126.3923 C192.4461,124.4623 193.7381,123.7583 194.3991,122.5323 C199.2861,114.6993 201.5651,105.9473 201.6741,96.8193 C201.8561,88.4603 198.2791,85.4993 189.9741,85.8943 C179.9031,86.0683 171.9791,90.5013 165.9191,98.2503 C159.0291,106.7243 154.3031,116.2143 151.0421,126.3283 C138.7071,141.1853 125.9131,155.3293 111.4921,168.1233 C109.3481,170.0723 107.4331,172.3873 103.6051,172.9413 C103.7541,170.4063 103.7461,168.2723 104.3521,166.4693 C108.5871,151.7133 112.8211,136.9583 117.4591,122.3583 C123.0141,105.1503 128.9901,88.2913 134.7381,71.0643 C135.6381,68.2633 136.1351,65.3073 136.6321,62.3503 C136.7811,59.8133 135.2901,58.4023 133.1031,57.8333 C129.5141,56.8133 126.2811,57.5063 124.0181,60.2413 C122.2761,62.3463 120.5341,64.4503 119.1961,66.7103 C113.2631,75.8063 107.5411,85.0763 101.3991,93.9973 C96.3011,101.6563 90.9921,109.1403 85.6841,116.6253 C85.2381,113.9513 86.0541,112.3223 86.8531,110.5003 C95.2271,94.3853 100.9921,77.3513 104.3421,59.3803 C105.0131,56.2133 105.4751,52.8723 105.5511,49.5663 C105.7981,39.8433 99.9711,33.6023 90.0921,33.7583 C85.0561,33.8453 79.9181,34.9123 75.2191,36.5183 C65.6311,39.7513 58.0981,46.2813 51.2341,53.7183 C22.8671,84.1363 6.9021,120.5623 0.6561,161.3093 C-0.2179,166.4363 -0.1129,171.6643 0.3581,176.6643 C1.1561,185.1243 6.0871,190.0913 14.4351,192.2143 C22.9571,194.1273 31.1721,192.7703 38.9941,189.3163 C47.7591,185.5803 54.9621,179.6633 61.4961,172.8383 C71.7611,162.3643 80.3231,150.3053 88.6761,138.0713 C91.0781,134.7403 93.2701,131.2363 95.6541,127.7133 L96.7241,128.7763 C93.6291,139.1563 90.5331,149.5363 87.8221,159.8803 C86.5451,164.8503 85.8631,169.9583 85.5661,175.0313 C85.0291,181.6783 88.3121,185.6363 94.9221,185.7883 C99.2071,185.9673 103.9961,185.3213 107.9071,183.5943 C113.1111,181.1643 117.8371,177.8083 121.9341,173.9293 C131.1801,165.2503 139.4861,155.8363 147.3141,146.0473 C148.0911,154.2543 153.1611,158.1533 162.4471,158.1373 C171.9431,158.0183 180.3781,154.8943 187.3701,148.8033 C193.6291,143.1683 199.2381,136.8193 205.0751,130.8373 C206.1391,129.7673 207.6231,129.0443 209.0891,128.1303 L210.0871,138.7063 C211.2571,149.0723 216.2061,154.2313 226.6341,155.7703 C237.2721,157.4833 247.0531,154.2333 255.3731,147.8223 C263.1521,141.8513 270.4731,135.1463 277.1461,127.7263 C284.6771,119.6553 288.9671,114.3993 292.8091,109.4733 C292.3521,111.7253 291.9741,114.0053 291.7011,116.3233 C291.1751,121.0283 290.8601,125.9083 291.1031,130.5413 C291.4461,135.5163 293.3441,138.8823 296.6341,140.7753 C153.9401,174.9243 80.0501,221.2553 80.0501,221.2553 C62.3971,235.0103 101.2621,220.8463 117.7961,212.2183 C134.3291,203.5893 242.6701,169.0403 292.3821,154.4863 C342.0931,139.9323 500.4761,122.8383 531.5531,116.2563 C562.6301,109.6733 527.1141,107.6053 527.1141,107.6053" id="Fill-3"></path>
                <path d="M316.7533,46.6414 C318.1533,47.0914 319.9493,45.5634 321.2233,44.6674 C321.9563,44.2104 322.2503,43.2134 322.5633,42.4074 C325.7633,37.2554 328.7883,32.3144 331.7963,27.1804 L336.3173,19.5764 C329.5253,17.5004 325.6143,19.2274 322.8993,23.3634 C319.8743,28.3054 317.4793,33.7694 314.8923,39.2504 C314.4063,40.2664 313.9553,41.6664 314.2383,42.6104 C314.7693,44.1124 315.7563,46.3484 316.7533,46.6414" id="Fill-1"></path>
            </g>
        </g>
    </g>
</svg>